<?xml version="1.0" encoding="UTF-8"?>
<svg version="1.1" xmlns="http://www.w3.org/2000/svg" width="16" height="16">
<path d="M0 0 C1.98 0 3.96 0 6 0 C6 0.66 6 1.32 6 2 C6.66 2 7.32 2 8 2 C8 3.32 8 4.64 8 6 C8.66 6.33 9.32 6.66 10 7 C10.33 6.34 10.66 5.68 11 5 C11 6.98 11 8.96 11 11 C8.03 11 5.06 11 2 11 C2 10.34 2 9.68 2 9 C3.32 8.67 4.64 8.34 6 8 C6 7.34 6 6.68 6 6 C3.69 6 1.38 6 -1 6 C-1.33 4.68 -1.66 3.36 -2 2 C-1.34 2 -0.68 2 0 2 C0 1.34 0 0.68 0 0 Z " fill="#DAB04B" transform="translate(5,5)"/>
<path d="M0 0 C1.32 0.66 2.64 1.32 4 2 C4.33 1.34 4.66 0.68 5 0 C5 1.98 5 3.96 5 6 C2.03 6 -0.94 6 -4 6 C-4 5.34 -4 4.68 -4 4 C-2.68 3.67 -1.36 3.34 0 3 C0 2.01 0 1.02 0 0 Z " fill="#C9A145" transform="translate(11,10)"/>
<path d="M0 0 C0 0.99 0 1.98 0 3 C-2.95664519 4.4783226 -5.74229737 4.06032783 -9 4 C-8 2 -8 2 -5.625 0.875 C-3 0 -3 0 0 0 Z " fill="#C9B271" transform="translate(13,7)"/>
</svg>
