<?xml version="1.0" encoding="UTF-8"?>
<svg version="1.1" xmlns="http://www.w3.org/2000/svg" width="192" height="192">
<path d="M0 0 C3 1 3 1 3.9831543 2.58227539 C4.26070557 3.24735107 4.53825684 3.91242676 4.82421875 4.59765625 C5.13037109 5.31630859 5.43652344 6.03496094 5.75195312 6.77539062 C6.21504883 7.90750977 6.21504883 7.90750977 6.6875 9.0625 C7.00783203 9.82111328 7.32816406 10.57972656 7.65820312 11.36132812 C8.44850702 13.23682542 9.22552197 15.1179123 10 17 C15.25620194 15.18422115 19.10994901 12.04138172 23.4765625 8.6796875 C26 7 26 7 29 7 C27.66666667 12.33333333 26.33333333 17.66666667 25 23 C25.77190674 23.08564209 26.54381348 23.17128418 27.33911133 23.25952148 C30.83062624 23.64881107 34.32155937 24.04309525 37.8125 24.4375 C39.02744141 24.57220703 40.24238281 24.70691406 41.49414062 24.84570312 C42.65751953 24.97783203 43.82089844 25.10996094 45.01953125 25.24609375 C46.09307861 25.36654053 47.16662598 25.4869873 48.27270508 25.61108398 C51 26 51 26 54 27 C54 27.66 54 28.32 54 29 C43.44 28.67 32.88 28.34 22 28 C21.505 30.475 21.505 30.475 21 33 C7.8 33 -5.4 33 -19 33 C-19.33 31.35 -19.66 29.7 -20 28 C-35.84 28.495 -35.84 28.495 -52 29 C-52 28.34 -52 27.68 -52 27 C-42.11914369 24.52978592 -32.13273632 24.36283161 -22 24 C-22.28875 23.19175781 -22.5775 22.38351563 -22.875 21.55078125 C-23.24625 20.48214844 -23.6175 19.41351563 -24 18.3125 C-24.37125 17.25675781 -24.7425 16.20101562 -25.125 15.11328125 C-25.9391857 12.21637944 -26.17709796 9.98299377 -26 7 C-21.21610855 7.62248226 -17.93151646 10.9928696 -14.33398438 13.9375 C-12.94454839 15.0323128 -11.47566718 16.02452381 -10 17 C-9.01 16.67 -8.02 16.34 -7 16 C-5.82526178 13.49856737 -4.81920442 11.08588649 -3.875 8.5 C-1.08639706 1.08639706 -1.08639706 1.08639706 0 0 Z M0 18 C0 19.32 0 20.64 0 22 C0.99 21.67 1.98 21.34 3 21 C2.67 20.01 2.34 19.02 2 18 C1.34 18 0.68 18 0 18 Z M-16 20 C-16 20.99 -16 21.98 -16 23 C-15.34 23 -14.68 23 -14 23 C-14.33 22.01 -14.66 21.02 -15 20 C-15.33 20 -15.66 20 -16 20 Z M17 20 C16.67 21.32 16.34 22.64 16 24 C16.99 23.01 17.98 22.02 19 21 C18.34 20.67 17.68 20.34 17 20 Z M-2 26 C-2 26.33 -2 26.66 -2 27 C-0.02 27 1.96 27 4 27 C4 26.67 4 26.34 4 26 C2.02 26 0.04 26 -2 26 Z " fill="#CD9048" transform="translate(95,62)"/>
<path d="M0 0 C4.78389145 0.62248226 8.06848354 3.9928696 11.66601562 6.9375 C13.05545161 8.0323128 14.52433282 9.02452381 16 10 C19.27773504 9.24849977 19.27773504 9.24849977 21 6 C20.91621094 6.61488281 20.83242187 7.22976562 20.74609375 7.86328125 C20.59333984 9.07564453 20.59333984 9.07564453 20.4375 10.3125 C20.33308594 11.11300781 20.22867188 11.91351563 20.12109375 12.73828125 C19.85244822 15.16817116 19.85244822 15.16817116 21 18 C21.99 18.66 22.98 19.32 24 20 C18.72 20.33 13.44 20.66 8 21 C8.75150023 24.27773504 8.75150023 24.27773504 12 26 C10.35 26 8.7 26 7 26 C6.67 24.35 6.34 22.7 6 21 C-9.84 21.495 -9.84 21.495 -26 22 C-26 21.34 -26 20.68 -26 20 C-16.11914369 17.52978592 -6.13273632 17.36283161 4 17 C3.71125 16.19175781 3.4225 15.38351563 3.125 14.55078125 C2.75375 13.48214844 2.3825 12.41351563 2 11.3125 C1.62875 10.25675781 1.2575 9.20101562 0.875 8.11328125 C0.0608143 5.21637944 -0.17709796 2.98299377 0 0 Z M10 13 C10 13.99 10 14.98 10 16 C10.66 16 11.32 16 12 16 C11.67 15.01 11.34 14.02 11 13 C10.67 13 10.34 13 10 13 Z " fill="#D3912F" transform="translate(69,69)"/>
<path d="M0 0 C3 1 3 1 4.75390625 4.45703125 C5.36768604 5.9042734 5.97011159 7.35637107 6.5625 8.8125 C7.16719479 10.25683469 7.77264143 11.70085488 8.37890625 13.14453125 C8.79873779 14.16474365 8.79873779 14.16474365 9.22705078 15.20556641 C10.00820195 17.09954061 10.00820195 17.09954061 11.21484375 19.19921875 C12 21 12 21 12 26 C5.73 26 -0.54 26 -7 26 C-6.34 25.67 -5.68 25.34 -5 25 C-5.66 24.34 -6.32 23.68 -7 23 C-6.78982808 14.4942189 -4.29089815 7.25522092 0 0 Z M0 18 C0 19.32 0 20.64 0 22 C0.99 21.67 1.98 21.34 3 21 C2.67 20.01 2.34 19.02 2 18 C1.34 18 0.68 18 0 18 Z " fill="#E9C254" transform="translate(95,62)"/>
<path d="M0 0 C1.65 0 3.3 0 5 0 C5.33 1.65 5.66 3.3 6 5 C6.721875 4.175 7.44375 3.35 8.1875 2.5 C11 0 11 0 13.8125 -0.3125 C14.534375 -0.209375 15.25625 -0.10625 16 0 C14.61918777 4.1424367 12.40174442 5.32203099 9 8 C9.92961422 9.15224028 10.8690125 10.29659176 11.8125 11.4375 C12.33457031 12.07558594 12.85664062 12.71367188 13.39453125 13.37109375 C15.00834411 15.2548275 15.00834411 15.2548275 18 16 C17.90460938 15.18015625 17.80921875 14.3603125 17.7109375 13.515625 C17.60007812 12.43796875 17.48921875 11.3603125 17.375 10.25 C17.25898437 9.18265625 17.14296875 8.1153125 17.0234375 7.015625 C16.99970525 3.96207601 17.38579015 2.53837579 19 0 C19.99 0 20.98 0 22 0 C22.90413673 3.83724172 23.10576898 7.37502274 23.0625 11.3125 C23.05347656 12.38113281 23.04445313 13.44976562 23.03515625 14.55078125 C23.02355469 15.35902344 23.01195313 16.16726562 23 17 C18.87546075 17.86869577 15.23097114 18.37776528 11 18 C8.0625 16 8.0625 16 6 14 C6 15.32 6 16.64 6 18 C4.02 18 2.04 18 0 18 C0 12 0 6 0 0 Z " fill="#E2BD51" transform="translate(101,97)"/>
<path d="M0 0 C1.12664062 -0.00128906 2.25328125 -0.00257812 3.4140625 -0.00390625 C5.15816406 0.00189453 5.15816406 0.00189453 6.9375 0.0078125 C8.10023437 0.00394531 9.26296875 0.00007813 10.4609375 -0.00390625 C11.58757812 -0.00261719 12.71421875 -0.00132813 13.875 0 C14.89464844 0.00112793 15.91429688 0.00225586 16.96484375 0.00341797 C20.02646192 0.13668486 22.92800479 0.56825183 25.9375 1.1328125 C25.9375 2.4528125 25.9375 3.7728125 25.9375 5.1328125 C13.7275 5.1328125 1.5175 5.1328125 -11.0625 5.1328125 C-11.3925 3.8128125 -11.7225 2.4928125 -12.0625 1.1328125 C-7.99080176 0.36898982 -4.14068429 0.0045804 0 0 Z " fill="#DBB763" transform="translate(89.0625,88.8671875)"/>
<path d="M0 0 C1.258125 -0.020625 2.51625 -0.04125 3.8125 -0.0625 C4.52019531 -0.07410156 5.22789063 -0.08570312 5.95703125 -0.09765625 C8 0 8 0 11 1 C11.12375 2.093125 11.2475 3.18625 11.375 4.3125 C11.75464801 8.07381802 11.75464801 8.07381802 14 11 C13.875 13.5625 13.875 13.5625 13 16 C9.57759562 18.87481968 5.22398815 18.1407996 1 18 C-0.59412284 14.81175432 -0.10174735 11.37103338 -0.0625 7.875 C-0.05798828 7.12089844 -0.05347656 6.36679688 -0.04882812 5.58984375 C-0.03703499 3.72652873 -0.01909942 1.86325445 0 0 Z M5 4 C5 4.99 5 5.98 5 7 C5.99 7 6.98 7 8 7 C8 6.01 8 5.02 8 4 C7.01 4 6.02 4 5 4 Z M5 10 C5 11.65 5 13.3 5 15 C6.32 14.67 7.64 14.34 9 14 C8.67 12.68 8.34 11.36 8 10 C7.01 10 6.02 10 5 10 Z " fill="#C4AD60" transform="translate(37,97)"/>
<path d="M0 0 C1.20720703 -0.00128906 2.41441406 -0.00257812 3.65820312 -0.00390625 C5.55795898 0.00189453 5.55795898 0.00189453 7.49609375 0.0078125 C8.76646484 0.00394531 10.03683594 0.00007813 11.34570312 -0.00390625 C13.15458008 -0.00197266 13.15458008 -0.00197266 15 0 C16.11318604 0.00112793 17.22637207 0.00225586 18.37329102 0.00341797 C20.93359375 0.1328125 20.93359375 0.1328125 21.93359375 1.1328125 C21.93359375 3.1128125 21.93359375 5.0928125 21.93359375 7.1328125 C12.69359375 7.1328125 3.45359375 7.1328125 -6.06640625 7.1328125 C-6.72640625 5.1528125 -7.38640625 3.1728125 -8.06640625 1.1328125 C-5.31285665 -0.2439623 -3.07800216 0.00311561 0 0 Z " fill="#B1A781" transform="translate(113.06640625,115.8671875)"/>
<path d="M0 0 C0 1.65 0 3.3 0 5 C-3.04973095 5.88695424 -5.77768626 6.12861616 -8.94921875 6.1328125 C-10.34430664 6.13474609 -10.34430664 6.13474609 -11.76757812 6.13671875 C-12.73115234 6.13285156 -13.69472656 6.12898438 -14.6875 6.125 C-16.15026367 6.13080078 -16.15026367 6.13080078 -17.64257812 6.13671875 C-18.56876953 6.13542969 -19.49496094 6.13414063 -20.44921875 6.1328125 C-21.29830811 6.13168457 -22.14739746 6.13055664 -23.0222168 6.12939453 C-25 6 -25 6 -26 5 C-26.04063832 3.33382885 -26.042721 1.66611905 -26 0 C-8.14350797 -1.33257403 -8.14350797 -1.33257403 0 0 Z " fill="#9E9B79" transform="translate(83,117)"/>
<path d="M0 0 C4.53460431 1.13365108 5.90024653 2.64193374 9 6 C9 4.02 9 2.04 9 0 C10.65 0 12.3 0 14 0 C13.67 4.29 13.34 8.58 13 13 C8.80825346 11.95206337 7.78407039 11.08236365 5 8 C4.34 9.98 3.68 11.96 3 14 C2.01 14 1.02 14 0 14 C0 9.38 0 4.76 0 0 Z " fill="#C3A559" transform="translate(59,101)"/>
<path d="M0 0 C1.21236328 0.04060547 1.21236328 0.04060547 2.44921875 0.08203125 C3.06410156 0.11683594 3.67898437 0.15164062 4.3125 0.1875 C4.6425 1.5075 4.9725 2.8275 5.3125 4.1875 C4.384375 3.960625 3.45625 3.73375 2.5 3.5 C-0.60467482 2.86579897 -0.60467482 2.86579897 -2.5625 4.375 C-4.03907524 6.39838411 -4.03907524 6.39838411 -3.6875 10.1875 C-2.0375 10.5175 -0.3875 10.8475 1.3125 11.1875 C1.3125 9.5375 1.3125 7.8875 1.3125 6.1875 C2.6325 5.8575 3.9525 5.5275 5.3125 5.1875 C6.74338528 8.04927057 5.91241697 10.12125773 5.3125 13.1875 C-1.95673077 14.39903846 -1.95673077 14.39903846 -5.0625 13.5 C-7.10697532 11.84869301 -7.89713942 10.70228368 -8.6875 8.1875 C-8.48450035 5.41317151 -8.12854104 3.76277093 -6.4296875 1.546875 C-4.15789608 -0.22573355 -2.84419556 -0.12366068 0 0 Z " fill="#D7BB52" transform="translate(81.6875,100.8125)"/>
<path d="M0 0 C3.78630702 0.75567052 5.4041044 2.12597273 8 5 C8.33 3.35 8.66 1.7 9 0 C10.32 0 11.64 0 13 0 C12.67 4.62 12.34 9.24 12 14 C8.30581799 12.768606 6.64890254 10.79208646 4 8 C4 9.65 4 11.3 4 13 C2.68 13.33 1.36 13.66 0 14 C-1.41778293 11.16443413 -0.86257622 9.0091294 -0.5625 5.875 C-0.46066406 4.77929688 -0.35882813 3.68359375 -0.25390625 2.5546875 C-0.17011719 1.71164063 -0.08632812 0.86859375 0 0 Z " fill="#D9B660" transform="translate(126,101)"/>
<path d="M0 0 C0.33 3.96 0.66 7.92 1 12 C-2.62643792 14.41762528 -4.0029759 14.19864295 -8.12109375 13.53125 C-10 13 -10 13 -12.0625 11.375 C-13.4252316 7.92274662 -12.91899141 5.54468114 -12 2 C-7.7975546 -0.80163026 -4.99895065 -0.14489712 0 0 Z M-6 2 C-6.99 2.66 -7.98 3.32 -9 4 C-9.5 6.5 -9.5 6.5 -9 9 C-6.18490007 11.2773501 -6.18490007 11.2773501 -3 11 C-3 9.02 -3 7.04 -3 5 C-2.34 4.67 -1.68 4.34 -1 4 C-3.32854463 2.80161791 -3.32854463 2.80161791 -6 2 Z " fill="#D3AE68" transform="translate(153,101)"/>
<path d="M0 0 C6.6 0 13.2 0 20 0 C20.33 1.98 20.66 3.96 21 6 C14.4 6 7.8 6 1 6 C0.67 4.02 0.34 2.04 0 0 Z " fill="#AEA584" transform="translate(84,117)"/>
<path d="M0 0 C-0.46800711 4.05606165 -0.87953208 7.46588679 -3 11 C-4.65 10.67 -6.3 10.34 -8 10 C-8.66 11.65 -9.32 13.3 -10 15 C-11.32 14.67 -12.64 14.34 -14 14 C-14.33 12.02 -14.66 10.04 -15 8 C-13.45025019 6.65186813 -11.88462935 5.3219657 -10.3125 4 C-9.44238281 3.2575 -8.57226562 2.515 -7.67578125 1.75 C-4.76416967 -0.15423648 -3.39853912 -0.39190361 0 0 Z " fill="#D6A741" transform="translate(120,73)"/>
<path d="M0 0 C3.3 0 6.6 0 10 0 C9.4140625 6.15234375 9.4140625 6.15234375 9 8 C8.01 8.495 8.01 8.495 7 9 C6.01 8.67 5.02 8.34 4 8 C4 8.99 4 9.98 4 11 C5.98 10.67 7.96 10.34 10 10 C9.67 11.32 9.34 12.64 9 14 C6.36 14 3.72 14 1 14 C-0.38226016 11.23547967 -0.09525387 8.9538637 -0.0625 5.875 C-0.05347656 4.77929688 -0.04445313 3.68359375 -0.03515625 2.5546875 C-0.02355469 1.71164063 -0.01195313 0.86859375 0 0 Z M4 3 C4 3.66 4 4.32 4 5 C4.99 5 5.98 5 7 5 C7 4.34 7 3.68 7 3 C6.01 3 5.02 3 4 3 Z " fill="#CBB269" transform="translate(89,101)"/>
<path d="M0 0 C0.99 0 1.98 0 3 0 C3.90413673 3.83724172 4.10576898 7.37502274 4.0625 11.3125 C4.05347656 12.38113281 4.04445313 13.44976562 4.03515625 14.55078125 C4.02355469 15.35902344 4.01195313 16.16726562 4 17 C0.24725989 17.81192163 -3.15454314 18.08942923 -7 18 C-3.25 16 -3.25 16 -1 16 C-1.09539062 15.18015625 -1.19078125 14.3603125 -1.2890625 13.515625 C-1.39992188 12.43796875 -1.51078125 11.3603125 -1.625 10.25 C-1.74101563 9.18265625 -1.85703125 8.1153125 -1.9765625 7.015625 C-2.00029475 3.96207601 -1.61420985 2.53837579 0 0 Z " fill="#D3AD5B" transform="translate(120,97)"/>
<path d="M0 0 C1.98 0.495 1.98 0.495 4 1 C4 6.28 4 11.56 4 17 C2.68 17.33 1.36 17.66 0 18 C-1.17794853 14.46615441 -1.13264317 11.59722447 -1.125 7.875 C-1.12886719 5.98394531 -1.12886719 5.98394531 -1.1328125 4.0546875 C-1 1 -1 1 0 0 Z " fill="#CCA35D" transform="translate(53,97)"/>
<path d="M0 0 C0.66 0.33 1.32 0.66 2 1 C1.67 3.64 1.34 6.28 1 9 C4.3 9 7.6 9 11 9 C11 9.33 11 9.66 11 10 C3.08 10.495 3.08 10.495 -5 11 C-4.24849977 14.27773504 -4.24849977 14.27773504 -1 16 C-2.65 16 -4.3 16 -6 16 C-6.12375 15.195625 -6.2475 14.39125 -6.375 13.5625 C-6.684375 12.2940625 -6.684375 12.2940625 -7 11 C-7.66 10.67 -8.32 10.34 -9 10 C-8 9 -8 9 -4.9375 8.9375 C-3.4834375 8.9684375 -3.4834375 8.9684375 -2 9 C-2 7.35 -2 5.7 -2 4 C-2.66 4 -3.32 4 -4 4 C-4 3.34 -4 2.68 -4 2 C-2.125 0.9375 -2.125 0.9375 0 0 Z " fill="#AA8547" transform="translate(82,79)"/>
<path d="M0 0 C-0.99 1.485 -0.99 1.485 -2 3 C-4.24658203 3.43237305 -4.24658203 3.43237305 -7.0078125 3.51171875 C-8.48701172 3.56489258 -8.48701172 3.56489258 -9.99609375 3.61914062 C-11.02863281 3.64169922 -12.06117187 3.66425781 -13.125 3.6875 C-14.16527344 3.72166016 -15.20554687 3.75582031 -16.27734375 3.79101562 C-18.85145507 3.87367058 -21.42521829 3.94276155 -24 4 C-24 3.34 -24 2.68 -24 2 C-15.96235969 -0.07422976 -8.27015524 -0.2144997 0 0 Z " fill="#AC945E" transform="translate(67,87)"/>
<path d="M0 0 C1.22589844 0.15275391 1.22589844 0.15275391 2.4765625 0.30859375 C3.41628906 0.43427734 3.41628906 0.43427734 4.375 0.5625 C4.375 2.2125 4.375 3.8625 4.375 5.5625 C5.035 5.8925 5.695 6.2225 6.375 6.5625 C2.745 6.5625 -0.885 6.5625 -4.625 6.5625 C-5.285 4.5825 -5.945 2.6025 -6.625 0.5625 C-4.10446405 -0.69776798 -2.7707902 -0.35624445 0 0 Z " fill="#968561" transform="translate(111.625,116.4375)"/>
<path d="M0 0 C1.3921875 1.0209375 1.3921875 1.0209375 2.8125 2.0625 C4.3903125 3.0215625 4.3903125 3.0215625 6 4 C9.27773504 3.24849977 9.27773504 3.24849977 11 0 C10.91621094 0.61488281 10.83242187 1.22976562 10.74609375 1.86328125 C10.64425781 2.67152344 10.54242188 3.47976562 10.4375 4.3125 C10.33308594 5.11300781 10.22867188 5.91351563 10.12109375 6.73828125 C9.85244822 9.16817116 9.85244822 9.16817116 11 12 C8.69 12.33 6.38 12.66 4 13 C4.0825 11.741875 4.165 10.48375 4.25 9.1875 C4.31722799 7.00676926 4.31722799 7.00676926 4 5 C2.11922127 3.08743288 2.11922127 3.08743288 0 2 C0 1.34 0 0.68 0 0 Z " fill="#E0AB40" transform="translate(79,75)"/>
<path d="M0 0 C1.32 0 2.64 0 4 0 C3.67 4.62 3.34 9.24 3 14 C-1.1424367 12.61918777 -2.32203099 10.40174442 -5 7 C-4.01 7 -3.02 7 -2 7 C-1.34 4.69 -0.68 2.38 0 0 Z " fill="#BBA564" transform="translate(135,101)"/>
<path d="M0 0 C1.65 0 3.3 0 5 0 C5.33 1.65 5.66 3.3 6 5 C6.721875 4.175 7.44375 3.35 8.1875 2.5 C11 0 11 0 13.8125 -0.3125 C14.534375 -0.209375 15.25625 -0.10625 16 0 C14.86085739 3.41742782 13.93609692 4.12880598 11.125 6.25 C10.42632812 6.79140625 9.72765625 7.3328125 9.0078125 7.890625 C8.34523438 8.25671875 7.68265625 8.6228125 7 9 C6.01 8.67 5.02 8.34 4 8 C4 5.69 4 3.38 4 1 C3.01 1 2.02 1 1 1 C0.67 1.66 0.34 2.32 0 3 C0 2.01 0 1.02 0 0 Z " fill="#A4945D" transform="translate(101,97)"/>
<path d="M0 0 C3 1 3 1 4.23828125 2.92578125 C4.59277344 3.71339844 4.94726562 4.50101562 5.3125 5.3125 C5.67988281 6.09238281 6.04726562 6.87226562 6.42578125 7.67578125 C7 10 7 10 6.10546875 12.29296875 C5.74066406 12.85628906 5.37585938 13.41960937 5 14 C4.01 11.36 3.02 8.72 2 6 C1.01 6.99 0.02 7.98 -1 9 C-1.66 9.66 -2.32 10.32 -3 11 C-4 8 -4 8 -3.22265625 5.95703125 C-2.83980469 5.24933594 -2.45695312 4.54164062 -2.0625 3.8125 C-1.68222656 3.09707031 -1.30195312 2.38164063 -0.91015625 1.64453125 C-0.60980469 1.10183594 -0.30945313 0.55914062 0 0 Z " fill="#DFC35D" transform="translate(95,62)"/>
<path d="M0 0 C1.670625 0.061875 1.670625 0.061875 3.375 0.125 C3.705 2.105 4.035 4.085 4.375 6.125 C0.745 6.125 -2.885 6.125 -6.625 6.125 C-5.13804348 0.17717391 -5.13804348 0.17717391 0 0 Z " fill="#ACA07B" transform="translate(100.625,116.875)"/>
<path d="M0 0 C2.64 0 5.28 0 8 0 C8.33 0.99 8.66 1.98 9 3 C14.94 3 20.88 3 27 3 C27 3.33 27 3.66 27 4 C18.42 4 9.84 4 1 4 C0.67 2.68 0.34 1.36 0 0 Z " fill="#B89C5C" transform="translate(77,90)"/>
<path d="M0 0 C4 4 4 4 5 7 C4.5625 9.1875 4.5625 9.1875 4 11 C1.36 11 -1.28 11 -4 11 C-2.68 7.37 -1.36 3.74 0 0 Z " fill="#E0B545" transform="translate(102,76)"/>
<path d="M0 0 C0.66 0 1.32 0 2 0 C2.33 4.62 2.66 9.24 3 14 C3.99 14 4.98 14 6 14 C6 14.66 6 15.32 6 16 C3.69 16.33 1.38 16.66 -1 17 C-0.67 11.39 -0.34 5.78 0 0 Z " fill="#E7BF55" transform="translate(39,98)"/>
<path d="M0 0 C5.94 0 11.88 0 18 0 C17.67 0.99 17.34 1.98 17 3 C11.72 3 6.44 3 1 3 C0.67 2.01 0.34 1.02 0 0 Z " fill="#EEC452" transform="translate(85,90)"/>
<path d="M0 0 C8 0 8 0 11 2 C10.34 2.66 9.68 3.32 9 4 C7.68 4 6.36 4 5 4 C5 4.99 5 5.98 5 7 C5.66 7.33 6.32 7.66 7 8 C6.34 8 5.68 8 5 8 C4.67 8.66 4.34 9.32 4 10 C4 7.03 4 4.06 4 1 C3.34 1 2.68 1 2 1 C2 6.28 2 11.56 2 17 C1.34 16.67 0.68 16.34 0 16 C0 10.72 0 5.44 0 0 Z " fill="#AE9658" transform="translate(37,97)"/>
<path d="M0 0 C6.23157542 -0.55639066 11.93671868 0.60842724 18 2 C18 2.66 18 3.32 18 4 C11.4 3.67 4.8 3.34 -2 3 C-1.34 2.01 -0.68 1.02 0 0 Z " fill="#BE9F63" transform="translate(131,87)"/>
<path d="M0 0 C5.4389165 -0.21755666 9.87080814 -0.10428384 15 2 C11.65060119 4.02558881 9.13037449 4.21738987 5.25 4.125 C4.26515625 4.10695313 3.2803125 4.08890625 2.265625 4.0703125 C1.14414063 4.03550781 1.14414063 4.03550781 0 4 C0 2.68 0 1.36 0 0 Z " fill="#D2A353" transform="translate(118,86)"/>
<path d="M0 0 C0.99 0 1.98 0 3 0 C2.53199289 4.05606165 2.12046792 7.46588679 0 11 C-1.32 10.67 -2.64 10.34 -4 10 C-4.20086443 6.28400809 -4.1519437 5.22791555 -2 2 C-1.34 2 -0.68 2 0 2 C0 1.34 0 0.68 0 0 Z " fill="#D0902C" transform="translate(117,73)"/>
<path d="M0 0 C2.31 0 4.62 0 7 0 C7.33 1.98 7.66 3.96 8 6 C5.66705225 6.04241723 3.33297433 6.04092937 1 6 C0 5 0 5 -0.0625 2.4375 C-0.041875 1.633125 -0.02125 0.82875 0 0 Z " fill="#A9A481" transform="translate(57,117)"/>
<path d="M0 0 C1.423125 0.061875 2.84625 0.12375 4.3125 0.1875 C4.6425 4.1475 4.9725 8.1075 5.3125 12.1875 C4.9825 12.1875 4.6525 12.1875 4.3125 12.1875 C4.3125 10.5375 4.3125 8.8875 4.3125 7.1875 C3.3225 7.1875 2.3325 7.1875 1.3125 7.1875 C1.6425 6.1975 1.9725 5.2075 2.3125 4.1875 C-0.73663228 3.17638907 -0.73663228 3.17638907 -3.6875 4.1875 C-3.6875 3.5275 -3.6875 2.8675 -3.6875 2.1875 C-5.0075 2.5175 -6.3275 2.8475 -7.6875 3.1875 C-5.26849268 0.20484049 -3.789448 -0.16475861 0 0 Z " fill="#A08F58" transform="translate(148.6875,100.8125)"/>
<path d="M0 0 C0.33 0.99 0.66 1.98 1 3 C0.01 3.495 0.01 3.495 -1 4 C-1.99 3.67 -2.98 3.34 -4 3 C-4 3.99 -4 4.98 -4 6 C-2.02 5.67 -0.04 5.34 2 5 C1.67 6.32 1.34 7.64 1 9 C-1.64 9 -4.28 9 -7 9 C-7.33 8.34 -7.66 7.68 -8 7 C-7.01 7 -6.02 7 -5 7 C-5 5.35 -5 3.7 -5 2 C-3.35 2 -1.7 2 0 2 C0 1.34 0 0.68 0 0 Z " fill="#B4975F" transform="translate(97,106)"/>
<path d="M0 0 C6.27 0 12.54 0 19 0 C18.34 2.31 17.68 4.62 17 7 C15.35 7 13.7 7 12 7 C13.32 6.67 14.64 6.34 16 6 C16 4.68 16 3.36 16 2 C10.72 1.67 5.44 1.34 0 1 C0 0.67 0 0.34 0 0 Z " fill="#9D7C49" transform="translate(99,88)"/>
<path d="M0 0 C4.37859255 0.50522222 6.81651224 3.17827222 10 6 C9.67 6.66 9.34 7.32 9 8 C7.02 6.68 5.04 5.36 3 4 C3.33 7.3 3.66 10.6 4 14 C-0.30769231 5.38461538 -0.30769231 5.38461538 0 0 Z " fill="#A6813F" transform="translate(69,69)"/>
<path d="M0 0 C1.65 0 3.3 0 5 0 C4.67 4.29 4.34 8.58 4 13 C3.01 12.67 2.02 12.34 1 12 C1.66 12 2.32 12 3 12 C2.34 11.34 1.68 10.68 1 10 C0.5859375 7.6171875 0.5859375 7.6171875 0.375 4.875 C0.30023438 3.96492188 0.22546875 3.05484375 0.1484375 2.1171875 C0.09945312 1.41851562 0.05046875 0.71984375 0 0 Z " fill="#C4B076" transform="translate(68,101)"/>
<path d="M0 0 C1.98 1.32 3.96 2.64 6 4 C5.67 4.99 5.34 5.98 5 7 C2.03 7 -0.94 7 -4 7 C-3.67 6.01 -3.34 5.02 -3 4 C-2.34 3.67 -1.68 3.34 -1 3 C-0.67 2.01 -0.34 1.02 0 0 Z " fill="#C58F3C" transform="translate(114,81)"/>
<path d="M0 0 C3.3 0 6.6 0 10 0 C10 1.32 10 2.64 10 4 C3.375 4.25 3.375 4.25 0 2 C0 1.34 0 0.68 0 0 Z " fill="#D39A3C" transform="translate(105,90)"/>
<path d="M0 0 C2.0625 0.4375 2.0625 0.4375 4 1 C3.67 3.31 3.34 5.62 3 8 C1.68 8 0.36 8 -1 8 C-1.04241723 5.66705225 -1.04092937 3.33297433 -1 1 C-0.67 0.67 -0.34 0.34 0 0 Z " fill="#AD9858" transform="translate(84,106)"/>
<path d="M0 0 C0 0.66 0 1.32 0 2 C-0.66 2 -1.32 2 -2 2 C-2.2475 3.11375 -2.495 4.2275 -2.75 5.375 C-4 9 -4 9 -6.125 10.4375 C-6.74375 10.623125 -7.3625 10.80875 -8 11 C-7.63265306 4.63265306 -7.63265306 4.63265306 -4.5625 1.5625 C-2 0 -2 0 0 0 Z " fill="#CC9845" transform="translate(117,73)"/>
<path d="M0 0 C0 0.66 0 1.32 0 2 C-1.32 2 -2.64 2 -4 2 C-4.33 2.66 -4.66 3.32 -5 4 C-5 3.34 -5 2.68 -5 2 C-5.66 2 -6.32 2 -7 2 C-7.33 2.99 -7.66 3.98 -8 5 C-8.99 5.66 -9.98 6.32 -11 7 C-11.33 5.02 -11.66 3.04 -12 1 C-10.37512529 0.83211627 -8.75009558 0.66573213 -7.125 0.5 C-6.22007813 0.4071875 -5.31515625 0.314375 -4.3828125 0.21875 C-2 0 -2 0 0 0 Z " fill="#837E62" transform="translate(76,116)"/>
<path d="M0 0 C0.5625 1.9375 0.5625 1.9375 1 4 C0 5 0 5 -1.84765625 5.09765625 C-3.8984375 5.06510417 -5.94921875 5.03255208 -8 5 C-8 3.66666667 -8 2.33333333 -8 1 C-5.36 0.67 -2.72 0.34 0 0 Z " fill="#C9A050" transform="translate(73,85)"/>
<path d="M0 0 C2.6875 -0.3125 2.6875 -0.3125 5 0 C5.33 1.65 5.66 3.3 6 5 C3.03 5 0.06 5 -3 5 C-1.8125 2.5 -1.8125 2.5 0 0 Z " fill="#B4A980" transform="translate(69,118)"/>
<path d="M0 0 C0.99 0.33 1.98 0.66 3 1 C2.34 1 1.68 1 1 1 C1 5.62 1 10.24 1 15 C2.32 15 3.64 15 5 15 C5 15.66 5 16.32 5 17 C3.02 17 1.04 17 -1 17 C-0.67 11.39 -0.34 5.78 0 0 Z " fill="#D0B872" transform="translate(102,98)"/>
<path d="M0 0 C2.64 0 5.28 0 8 0 C8.33 1.32 8.66 2.64 9 4 C7.6078125 3.7215625 7.6078125 3.7215625 6.1875 3.4375 C2.98656229 2.75876119 2.98656229 2.75876119 0 4 C0 2.68 0 1.36 0 0 Z " fill="#B3A366" transform="translate(78,101)"/>
<path d="M0 0 C0.33 0.66 0.66 1.32 1 2 C3.52733235 2.65555119 3.52733235 2.65555119 6 3 C6.33 3.99 6.66 4.98 7 6 C4.36 5.67 1.72 5.34 -1 5 C-1 1 -1 1 0 0 Z " fill="#C3AC65" transform="translate(77,109)"/>
<path d="M0 0 C0.66 0.33 1.32 0.66 2 1 C2 2.98 2 4.96 2 7 C0.02 7 -1.96 7 -4 7 C-3.34 6.67 -2.68 6.34 -2 6 C-2 4.35 -2 2.7 -2 1 C-1.34 0.67 -0.68 0.34 0 0 Z " fill="#9A9477" transform="translate(133,116)"/>
<path d="M0 0 C1.3921875 1.0209375 1.3921875 1.0209375 2.8125 2.0625 C4.3903125 3.0215625 4.3903125 3.0215625 6 4 C9.27773504 3.24849977 9.27773504 3.24849977 11 0 C10.67 2.31 10.34 4.62 10 7 C9.01 7.33 8.02 7.66 7 8 C7 7.34 7 6.68 7 6 C6.21625 5.7525 5.4325 5.505 4.625 5.25 C1.67682892 3.84610901 1.0975223 2.99324263 0 0 Z " fill="#C6A44B" transform="translate(79,75)"/>
<path d="M0 0 C0.33 0 0.66 0 1 0 C1 3.3 1 6.6 1 10 C2.32 10.33 3.64 10.66 5 11 C1.26562152 11.87867729 -2.16774573 12.08912219 -6 12 C-2.25 10 -2.25 10 0 10 C0 6.7 0 3.4 0 0 Z " fill="#8A824B" transform="translate(119,103)"/>
<path d="M0 0 C1.32 0 2.64 0 4 0 C5.125 4.75 5.125 4.75 4 7 C2.68 6.67 1.36 6.34 0 6 C0 4.02 0 2.04 0 0 Z " fill="#E2C05A" transform="translate(46,106)"/>
<path d="M0 0 C0.99 0 1.98 0 3 0 C3 0.66 3 1.32 3 2 C2.34 2 1.68 2 1 2 C1 2.66 1 3.32 1 4 C1.66 4.33 2.32 4.66 3 5 C2.34 5 1.68 5 1 5 C1 7.31 1 9.62 1 12 C1.99 12.33 2.98 12.66 4 13 C2.68 13.33 1.36 13.66 0 14 C-1.41778293 11.16443413 -0.86257622 9.0091294 -0.5625 5.875 C-0.46066406 4.77929688 -0.35882813 3.68359375 -0.25390625 2.5546875 C-0.17011719 1.71164063 -0.08632812 0.86859375 0 0 Z " fill="#A9995D" transform="translate(126,101)"/>
<path d="M0 0 C2.64 0 5.28 0 8 0 C8.33 0.99 8.66 1.98 9 3 C6.03 3 3.06 3 0 3 C0 2.01 0 1.02 0 0 Z " fill="#D59A37" transform="translate(77,90)"/>
<path d="M0 0 C2.0625 0.4375 2.0625 0.4375 4 1 C4 2.65 4 4.3 4 6 C2.35 6 0.7 6 -1 6 C-1.042721 4.33388095 -1.04063832 2.66617115 -1 1 C-0.67 0.67 -0.34 0.34 0 0 Z " fill="#BAAC71" transform="translate(53,97)"/>
<path d="M0 0 C2 2 2 2 2 6 C2.66 6 3.32 6 4 6 C4.33 4.68 4.66 3.36 5 2 C7 4 7 4 7 7 C4.36 7 1.72 7 -1 7 C-0.34 6.67 0.32 6.34 1 6 C0.67 4.02 0.34 2.04 0 0 Z " fill="#C8933F" transform="translate(73,81)"/>
<path d="M0 0 C3.3 0 6.6 0 10 0 C7 3 7 3 3.8125 3.1875 C2.4203125 3.0946875 2.4203125 3.0946875 1 3 C0.67 2.01 0.34 1.02 0 0 Z " fill="#E7B84C" transform="translate(85,90)"/>
<path d="M0 0 C0.99 0.33 1.98 0.66 3 1 C2.67 2.98 2.34 4.96 2 7 C1.01 6.67 0.02 6.34 -1 6 C-1.33 4.35 -1.66 2.7 -2 1 C-1.34 0.67 -0.68 0.34 0 0 Z " fill="#7D7B62" transform="translate(107,116)"/>
<path d="M0 0 C0.99 0 1.98 0 3 0 C2.67 1.65 2.34 3.3 2 5 C0.68 5.33 -0.64 5.66 -2 6 C-1.34 4.02 -0.68 2.04 0 0 Z " fill="#C2B181" transform="translate(120,97)"/>
<path d="M0 0 C0.66 0 1.32 0 2 0 C2.33 0.66 2.66 1.32 3 2 C3.66 1.34 4.32 0.68 5 0 C5 1.65 5 3.3 5 5 C3.35 5 1.7 5 0 5 C0 3.35 0 1.7 0 0 Z " fill="#B7B081" transform="translate(89,118)"/>
<path d="M0 0 C0.99 0 1.98 0 3 0 C3 0.66 3 1.32 3 2 C4.32 2 5.64 2 7 2 C7 2.66 7 3.32 7 4 C5.02 4.33 3.04 4.66 1 5 C0.67 3.35 0.34 1.7 0 0 Z " fill="#BDB07F" transform="translate(124,118)"/>
<path d="M0 0 C0.33 0 0.66 0 1 0 C1 1.65 1 3.3 1 5 C1.99 5 2.98 5 4 5 C4 5.66 4 6.32 4 7 C1.69 7.33 -0.62 7.66 -3 8 C-2.67 7.34 -2.34 6.68 -2 6 C-1.34 6 -0.68 6 0 6 C0 4.02 0 2.04 0 0 Z " fill="#D8BB5B" transform="translate(41,107)"/>
<path d="M0 0 C1.99097846 2.98646769 2.94124926 5.59687262 4 9 C3.34 9.66 2.68 10.32 2 11 C0.57741188 7.17679443 -0.24042276 4.08718695 0 0 Z " fill="#D0B766" transform="translate(98,65)"/>
<path d="M0 0 C0.99 0 1.98 0 3 0 C3 1.98 3 3.96 3 6 C2.01 6.33 1.02 6.66 0 7 C0 4.69 0 2.38 0 0 Z " fill="#DCBD5A" transform="translate(150,108)"/>
<path d="M0 0 C2.97 0.495 2.97 0.495 6 1 C6 1.99 6 2.98 6 4 C4.02 4 2.04 4 0 4 C0 2.68 0 1.36 0 0 Z " fill="#DBB059" transform="translate(118,86)"/>
<path d="M0 0 C0 0.66 0 1.32 0 2 C-2.31 2 -4.62 2 -7 2 C-7.33 1.34 -7.66 0.68 -8 0 C-4.94736336 -0.98120464 -3.05263664 -0.98120464 0 0 Z " fill="#79826E" transform="translate(55,119)"/>
<path d="M0 0 C2.31 0.33 4.62 0.66 7 1 C6.67 1.66 6.34 2.32 6 3 C3.69 3 1.38 3 -1 3 C-0.67 2.01 -0.34 1.02 0 0 Z " fill="#7D7F64" transform="translate(138,118)"/>
<path d="M0 0 C0.99 0 1.98 0 3 0 C3 1.65 3 3.3 3 5 C2.01 5.33 1.02 5.66 0 6 C-1 3 -1 3 0 0 Z " fill="#9F976C" transform="translate(80,117)"/>
<path d="M0 0 C-0.33 1.98 -0.66 3.96 -1 6 C-1.66 6 -2.32 6 -3 6 C-3 5.01 -3 4.02 -3 3 C-3.99 2.67 -4.98 2.34 -6 2 C-3 0 -3 0 0 0 Z " fill="#A38143" transform="translate(124,69)"/>
<path d="M0 0 C1.32 1.32 2.64 2.64 4 4 C2.35 4.33 0.7 4.66 -1 5 C-1.66 4.01 -2.32 3.02 -3 2 C-2.01 1.34 -1.02 0.68 0 0 Z " fill="#DBBF62" transform="translate(113,110)"/>
<path d="M0 0 C2.97 0.495 2.97 0.495 6 1 C6 1.66 6 2.32 6 3 C3.36 3 0.72 3 -2 3 C-1.34 2.67 -0.68 2.34 0 2 C0 1.34 0 0.68 0 0 Z " fill="#6F665C" transform="translate(143,88)"/>
</svg>
