<?xml version="1.0" encoding="UTF-8"?>
<svg version="1.1" xmlns="http://www.w3.org/2000/svg" width="180" height="180">
<path d="M0 0 C0.99 0.33 1.98 0.66 3 1 C4.19864128 3.52268786 5.22406621 5.9529028 6.1875 8.5625 C6.46013672 9.27341797 6.73277344 9.98433594 7.01367188 10.71679688 C7.68590073 12.4740267 8.34427492 14.23654518 9 16 C12.55521441 16 15.22624703 13.06082048 18 11 C24.72972973 6 24.72972973 6 27 6 C26.27275406 11.52706913 24.66554027 16.69960141 23 22 C24.27875 22.13277344 25.5575 22.26554687 26.875 22.40234375 C28.58333777 22.5806867 30.29167085 22.75907451 32 22.9375 C32.83917969 23.02451172 33.67835937 23.11152344 34.54296875 23.20117188 C36.21654065 23.37631312 37.88972904 23.55516036 39.5625 23.73779297 C41.16542636 23.91022315 42.76965129 24.07104717 44.375 24.21923828 C46.25828764 24.41050968 48.13153313 24.69637413 50 25 C50.495 25.99 50.495 25.99 51 27 C29.99082569 27.19877676 29.99082569 27.19877676 21 26 C20.505 28.475 20.505 28.475 20 31 C7.46 31 -5.08 31 -18 31 C-18.495 28.525 -18.495 28.525 -19 26 C-20.85625 26.2475 -20.85625 26.2475 -22.75 26.5 C-31.45781841 27.39602189 -40.25765509 27.08271505 -49 27 C-48.67 26.34 -48.34 25.68 -48 25 C-45.40795898 24.49755859 -45.40795898 24.49755859 -41.99609375 24.1484375 C-40.17368164 23.95507812 -40.17368164 23.95507812 -38.31445312 23.7578125 C-37.03505859 23.63148437 -35.75566406 23.50515625 -34.4375 23.375 C-33.15423828 23.2409375 -31.87097656 23.106875 -30.54882812 22.96875 C-27.36664791 22.63751935 -24.18382071 22.31500477 -21 22 C-21.20858643 21.32018066 -21.41717285 20.64036133 -21.63208008 19.93994141 C-21.90431396 19.04452637 -22.17654785 18.14911133 -22.45703125 17.2265625 C-22.72749268 16.34049316 -22.9979541 15.45442383 -23.27661133 14.54150391 C-24.0808893 11.71580912 -24.61682519 8.91212855 -25 6 C-20.6426774 7.47130373 -17.28065866 9.83080615 -13.6875 12.625 C-13.13771484 13.04523438 -12.58792969 13.46546875 -12.02148438 13.8984375 C-10.67707832 14.92720039 -9.33798587 15.9629009 -8 17 C-7.59007812 16.10796875 -7.18015625 15.2159375 -6.7578125 14.296875 C-6.21898437 13.12640625 -5.68015625 11.9559375 -5.125 10.75 C-4.59132812 9.58984375 -4.05765625 8.4296875 -3.5078125 7.234375 C-2.3736281 4.80146131 -1.21911904 2.39089364 0 0 Z M0 17 C0 18.32 0 19.64 0 21 C0.99 20.67 1.98 20.34 3 20 C2.67 19.01 2.34 18.02 2 17 C1.34 17 0.68 17 0 17 Z M-15 19 C-15 19.99 -15 20.98 -15 22 C-14.01 21.67 -13.02 21.34 -12 21 C-12.99 20.34 -13.98 19.68 -15 19 Z M16 19 C15.34 19.66 14.68 20.32 14 21 C15.32 21 16.64 21 18 21 C17.34 20.34 16.68 19.68 16 19 Z " fill="#CFA04A" transform="translate(89,58)"/>
<path d="M0 0 C3 1 3 1 4.1328125 2.86328125 C6.85209929 9.57585141 7.75186278 15.77920686 8 23 C9.98 23.66 11.96 24.32 14 25 C14 25.33 14 25.66 14 26 C12.02 26.33 10.04 26.66 8 27 C8.33 27.66 8.66 28.32 9 29 C6.54137599 29.05383848 4.0839245 29.09359038 1.625 29.125 C0.57699219 29.15013672 0.57699219 29.15013672 -0.4921875 29.17578125 C-2.32897486 29.19344267 -4.16601963 29.10303261 -6 29 C-6.66 28.34 -7.32 27.68 -8 27 C-8.99 26.34 -9.98 25.68 -11 25 C-7.04 23.515 -7.04 23.515 -3 22 C-3.33 20.35 -3.66 18.7 -4 17 C-4.66 17.33 -5.32 17.66 -6 18 C-5.55397709 11.30965634 -2.92654458 5.97187878 0 0 Z M0 17 C0 18.32 0 19.64 0 21 C0.99 20.67 1.98 20.34 3 20 C2.67 19.01 2.34 18.02 2 17 C1.34 17 0.68 17 0 17 Z " fill="#E4C059" transform="translate(89,58)"/>
<path d="M0 0 C14.52 0 29.04 0 44 0 C44.495 2.97 44.495 2.97 45 6 C39.06 6 33.12 6 27 6 C26.67 5.34 26.34 4.68 26 4 C25.67 4.66 25.34 5.32 25 6 C17.82105263 7.27368421 17.82105263 7.27368421 14 6 C10.89934245 6.00850661 7.81274648 6.13014136 4.71484375 6.2578125 C3.37099609 6.13019531 3.37099609 6.13019531 2 6 C0 3 0 3 0 0 Z M16 2 C16.33 2.66 16.66 3.32 17 4 C17.66 4 18.32 4 19 4 C19 3.34 19 2.68 19 2 C18.01 2 17.02 2 16 2 Z M32 2 C33 4 33 4 33 4 Z " fill="#A09674" transform="translate(53,109)"/>
<path d="M0 0 C3.89006773 1.38780795 6.96558708 3.2152227 10.3125 5.625 C11.19550781 6.25664063 12.07851562 6.88828125 12.98828125 7.5390625 C13.65214844 8.02117187 14.31601563 8.50328125 15 9 C13 12 13 12 10 14 C10.66 15.32 11.32 16.64 12 18 C10.02 18.99 10.02 18.99 8 20 C8 20.99 8 21.98 8 23 C10.31 23 12.62 23 15 23 C11.77208445 25.1519437 10.71599191 25.20086443 7 25 C6.505 22.525 6.505 22.525 6 20 C4.14375 20.2475 4.14375 20.2475 2.25 20.5 C-6.45781841 21.39602189 -15.25765509 21.08271505 -24 21 C-23.67 20.34 -23.34 19.68 -23 19 C-20.40795898 18.49755859 -20.40795898 18.49755859 -16.99609375 18.1484375 C-15.17368164 17.95507812 -15.17368164 17.95507812 -13.31445312 17.7578125 C-12.03505859 17.63148437 -10.75566406 17.50515625 -9.4375 17.375 C-8.15423828 17.2409375 -6.87097656 17.106875 -5.54882812 16.96875 C-2.36664791 16.63751935 0.81617929 16.31500477 4 16 C3.79141357 15.32018066 3.58282715 14.64036133 3.36791992 13.93994141 C3.09568604 13.04452637 2.82345215 12.14911133 2.54296875 11.2265625 C2.27250732 10.34049316 2.0020459 9.45442383 1.72338867 8.54150391 C0.9191107 5.71580912 0.38317481 2.91212855 0 0 Z " fill="#BB8937" transform="translate(64,64)"/>
<path d="M0 0 C-0.72724594 5.52706913 -2.33445973 10.69960141 -4 16 C-2.72125 16.13277344 -1.4425 16.26554687 -0.125 16.40234375 C1.58333777 16.5806867 3.29167085 16.75907451 5 16.9375 C5.83917969 17.02451172 6.67835937 17.11152344 7.54296875 17.20117188 C9.21654065 17.37631312 10.88972904 17.55516036 12.5625 17.73779297 C14.16542636 17.91022315 15.76965129 18.07104717 17.375 18.21923828 C19.25828764 18.41050968 21.13153313 18.69637413 23 19 C23.495 19.99 23.495 19.99 24 21 C2.99082569 21.19877676 2.99082569 21.19877676 -6 20 C-6.33 21.65 -6.66 23.3 -7 25 C-9.64 24.67 -12.28 24.34 -15 24 C-15 23.67 -15 23.34 -15 23 C-12.69 23 -10.38 23 -8 23 C-8 22.01 -8 21.02 -8 20 C-9.32 19.67 -10.64 19.34 -12 19 C-12 16 -12 16 -10 14 C-9.83328148 11.5417707 -9.83328148 11.5417707 -10 9 C-10 8.01 -10 7.02 -10 6 C-8.3203125 4.39453125 -8.3203125 4.39453125 -6.125 2.8125 C-5.40570313 2.28269531 -4.68640625 1.75289063 -3.9453125 1.20703125 C-2 0 -2 0 0 0 Z " fill="#C0893C" transform="translate(116,64)"/>
<path d="M0 0 C1.2065625 0.0309375 1.2065625 0.0309375 2.4375 0.0625 C2.4375 1.7125 2.4375 3.3625 2.4375 5.0625 C3.159375 4.216875 3.88125 3.37125 4.625 2.5 C7.4375 0.0625 7.4375 0.0625 10.25 0.25 C10.971875 0.518125 11.69375 0.78625 12.4375 1.0625 C8.4375 5.0625 8.4375 5.0625 4.4375 9.0625 C5.0975 9.0625 5.7575 9.0625 6.4375 9.0625 C6.4375 9.7225 6.4375 10.3825 6.4375 11.0625 C7.0975 11.0625 7.7575 11.0625 8.4375 11.0625 C8.4375 11.7225 8.4375 12.3825 8.4375 13.0625 C10.0875 13.3925 11.7375 13.7225 13.4375 14.0625 C13.4375 9.7725 13.4375 5.4825 13.4375 1.0625 C14.7575 0.7325 16.0775 0.4025 17.4375 0.0625 C18.50473961 3.52472615 18.53923486 6.70289266 18.5 10.3125 C18.49097656 11.39015625 18.48195313 12.4678125 18.47265625 13.578125 C18.46105469 14.39796875 18.44945313 15.2178125 18.4375 16.0625 C14.64078391 17.08437326 11.38897333 17.40912047 7.4375 17.0625 C4.5 15.0625 4.5 15.0625 2.4375 13.0625 C2.4375 14.3825 2.4375 15.7025 2.4375 17.0625 C0.7875 17.0625 -0.8625 17.0625 -2.5625 17.0625 C-2.75636492 14.41698944 -2.94288267 11.77132217 -3.125 9.125 C-3.18107422 8.37025391 -3.23714844 7.61550781 -3.29492188 6.83789062 C-3.42426157 4.91504042 -3.49766912 2.98860452 -3.5625 1.0625 C-2.5625 0.0625 -2.5625 0.0625 0 0 Z " fill="#E2BF61" transform="translate(97.5625,90.9375)"/>
<path d="M0 0 C1.16781006 0.00523682 2.33562012 0.01047363 3.53881836 0.01586914 C4.79887695 0.0190918 6.05893555 0.02231445 7.35717773 0.02563477 C8.6976732 0.03399136 10.03816799 0.04245632 11.37866211 0.05102539 C12.72306153 0.05603879 14.06746271 0.06060197 15.41186523 0.06469727 C18.71334151 0.07653051 22.01473014 0.09301568 25.31616211 0.11352539 C25.31616211 2.09352539 25.31616211 4.07352539 25.31616211 6.11352539 C16.40616211 6.11352539 7.49616211 6.11352539 -1.68383789 6.11352539 C-1.68383789 4.79352539 -1.68383789 3.47352539 -1.68383789 2.11352539 C-2.34383789 1.78352539 -3.00383789 1.45352539 -3.68383789 1.11352539 C-2.68383789 0.11352539 -2.68383789 0.11352539 0 0 Z M13.31616211 2.11352539 C14.31616211 4.11352539 14.31616211 4.11352539 14.31616211 4.11352539 Z " fill="#B4AD8B" transform="translate(101.683837890625,108.886474609375)"/>
<path d="M0 0 C6.625 -0.125 6.625 -0.125 10 1 C10.144375 2.134375 10.28875 3.26875 10.4375 4.4375 C10.61171478 7.80777201 10.61171478 7.80777201 12 9 C12.04080783 10.99958364 12.04254356 13.00045254 12 15 C8.36576791 17.32590854 5.22911669 17.16265833 1 17 C-0.18681726 13.43954823 -0.09689832 10.56191663 -0.0625 6.8125 C-0.05347656 5.54019531 -0.04445312 4.26789063 -0.03515625 2.95703125 C-0.02355469 1.98121094 -0.01195312 1.00539063 0 0 Z M5 3 C5 3.99 5 4.98 5 6 C5.66 6 6.32 6 7 6 C6.67 5.01 6.34 4.02 6 3 C5.67 3 5.34 3 5 3 Z M5 9 C5 10.65 5 12.3 5 14 C5.99 13.67 6.98 13.34 8 13 C7.67 11.68 7.34 10.36 7 9 C6.34 9 5.68 9 5 9 Z " fill="#DBBA62" transform="translate(35,91)"/>
<path d="M0 0 C1.32 0 2.64 0 4 0 C4 0.66 4 1.32 4 2 C4.99 2.33 5.98 2.66 7 3 C7 3.66 7 4.32 7 5 C7.66 5 8.32 5 9 5 C9 3.35 9 1.7 9 0 C10.32 0 11.64 0 13 0 C12.67 4.29 12.34 8.58 12 13 C8.30581799 11.768606 6.64890254 9.79208646 4 7 C4 8.65 4 10.3 4 12 C2.68 12 1.36 12 0 12 C0 8.04 0 4.08 0 0 Z " fill="#C9AF68" transform="translate(55,95)"/>
<path d="M0 0 C3.78630702 0.75567052 5.4041044 2.12597273 8 5 C8 3.35 8 1.7 8 0 C9.32 0 10.64 0 12 0 C12 3.96 12 7.92 12 12 C9 12 9 12 6.3125 9.5 C5.549375 8.675 4.78625 7.85 4 7 C4 8.65 4 10.3 4 12 C2.68 12.33 1.36 12.66 0 13 C-1.36421031 10.27157939 -0.87807211 8.39046682 -0.5625 5.375 C-0.40974609 3.87066406 -0.40974609 3.87066406 -0.25390625 2.3359375 C-0.17011719 1.56507812 -0.08632812 0.79421875 0 0 Z " fill="#C3A762" transform="translate(118,95)"/>
<path d="M0 0 C0 1.32 0 2.64 0 4 C-0.66 4 -1.32 4 -2 4 C-2 3.34 -2 2.68 -2 2 C-3.65 2.33 -5.3 2.66 -7 3 C-7.33 4.98 -7.66 6.96 -8 9 C-6.35 9.33 -4.7 9.66 -3 10 C-3 8.35 -3 6.7 -3 5 C-1.68 5 -0.36 5 1 5 C1.1875 7.875 1.1875 7.875 1 11 C-2 13 -2 13 -5.5 12.8125 C-9 12 -9 12 -10.9375 10.875 C-12.6223469 7.90174077 -12.3030281 5.33330906 -12 2 C-8.24587786 -1.75412214 -4.98458941 -1.01957511 0 0 Z " fill="#C6B165" transform="translate(81,95)"/>
<path d="M0 0 C0 1.32 0 2.64 0 4 C-2.31 3.67 -4.62 3.34 -7 3 C-7.33 4.65 -7.66 6.3 -8 8 C-6.68 8.33 -5.36 8.66 -4 9 C-4 7.68 -4 6.36 -4 5 C-2.68 5 -1.36 5 0 5 C0 7.31 0 9.62 0 12 C-6.32997988 13.21730382 -6.32997988 13.21730382 -9.3125 12.25 C-11 11 -11 11 -13 8 C-12.55555556 2.55555556 -12.55555556 2.55555556 -10 0 C-6.49555486 -1.3767463 -3.62123372 -0.7407069 0 0 Z " fill="#CEB165" transform="translate(144,95)"/>
<path d="M0 0 C6.27 0 12.54 0 19 0 C19.33 1.98 19.66 3.96 20 6 C14.06 6 8.12 6 2 6 C2 4.68 2 3.36 2 2 C1.34 1.34 0.68 0.68 0 0 Z M7 2 C8 4 8 4 8 4 Z " fill="#AFA681" transform="translate(78,109)"/>
<path d="M0 0 C2.97 0 5.94 0 9 0 C9 0.99 9 1.98 9 3 C7.68 2.67 6.36 2.34 5 2 C5 2.66 5 3.32 5 4 C6.32 4.33 7.64 4.66 9 5 C8.67 5.99 8.34 6.98 8 8 C7.01 7.67 6.02 7.34 5 7 C5 7.99 5 8.98 5 10 C6.65 9.67 8.3 9.34 10 9 C9.67 10.32 9.34 11.64 9 13 C6.36 13 3.72 13 1 13 C-0.32229189 10.35541621 -0.09677194 8.32238699 -0.0625 5.375 C-0.05347656 4.37210937 -0.04445313 3.36921875 -0.03515625 2.3359375 C-0.02355469 1.56507812 -0.01195313 0.79421875 0 0 Z " fill="#C4A966" transform="translate(83,95)"/>
<path d="M0 0 C9.42045473 -0.25770241 18.77651552 -0.18770789 28 2 C28.33 2.66 28.66 3.32 29 4 C25.85418698 4.02948491 22.70841037 4.04695916 19.5625 4.0625 C18.68400391 4.07087891 17.80550781 4.07925781 16.90039062 4.08789062 C11.18216923 4.10899107 5.67199185 3.73280057 0 3 C0 2.01 0 1.02 0 0 Z " fill="#AC8F60" transform="translate(111,81)"/>
<path d="M0 0 C1.32 0.33 2.64 0.66 4 1 C4 5.95 4 10.9 4 16 C0.1273408 16.9681648 -3.03611362 17.07622858 -7 17 C-6.01 16.67 -5.02 16.34 -4 16 C-3.67 15.34 -3.34 14.68 -3 14 C-2.34 14 -1.68 14 -1 14 C-1.01160156 13.07316406 -1.02320312 12.14632812 -1.03515625 11.19140625 C-1.04417969 9.99386719 -1.05320312 8.79632813 -1.0625 7.5625 C-1.07410156 6.36753906 -1.08570312 5.17257813 -1.09765625 3.94140625 C-1 1 -1 1 0 0 Z " fill="#CEB066" transform="translate(112,91)"/>
<path d="M0 0 C1.65322266 0.01740234 1.65322266 0.01740234 3.33984375 0.03515625 C4.99693359 0.04869141 4.99693359 0.04869141 6.6875 0.0625 C7.54214844 0.07410156 8.39679688 0.08570312 9.27734375 0.09765625 C9.27734375 1.41765625 9.27734375 2.73765625 9.27734375 4.09765625 C10.26734375 4.75765625 11.25734375 5.41765625 12.27734375 6.09765625 C7.65734375 6.09765625 3.03734375 6.09765625 -1.72265625 6.09765625 C-1.72265625 4.77765625 -1.72265625 3.45765625 -1.72265625 2.09765625 C-2.38265625 1.76765625 -3.04265625 1.43765625 -3.72265625 1.09765625 C-2.72265625 0.09765625 -2.72265625 0.09765625 0 0 Z " fill="#938763" transform="translate(101.72265625,108.90234375)"/>
<path d="M0 0 C0.99 1.32 1.98 2.64 3 4 C4.98 2.68 6.96 1.36 9 0 C9.66 0.66 10.32 1.32 11 2 C10.67 2.99 10.34 3.98 10 5 C7.9375 5.6875 7.9375 5.6875 6 6 C6 7.65 6 9.3 6 11 C4.35 11 2.7 11 1 11 C-0.17571451 7.32589215 -0.07366746 3.83070817 0 0 Z " fill="#D8A745" transform="translate(96,71)"/>
<path d="M0 0 C0.99 0.33 1.98 0.66 3 1 C4.2710735 4.16678884 4.10265074 7.37733787 4.0625 10.75 C4.05347656 11.73484375 4.04445313 12.7196875 4.03515625 13.734375 C4.02355469 14.48203125 4.01195312 15.2296875 4 16 C2.35 16.33 0.7 16.66 -1 17 C-1.02684679 14.35409986 -1.04676357 11.70846904 -1.0625 9.0625 C-1.07087891 8.30775391 -1.07925781 7.55300781 -1.08789062 6.77539062 C-1.09652441 4.85005687 -1.05224333 2.92464419 -1 1 C-0.67 0.67 -0.34 0.34 0 0 Z " fill="#C1AE76" transform="translate(50,91)"/>
<path d="M0 0 C1.2065625 0.0309375 1.2065625 0.0309375 2.4375 0.0625 C2.4375 1.7125 2.4375 3.3625 2.4375 5.0625 C3.159375 4.216875 3.88125 3.37125 4.625 2.5 C7.4375 0.0625 7.4375 0.0625 10.25 0.25 C10.971875 0.518125 11.69375 0.78625 12.4375 1.0625 C9.61243137 3.9922008 6.64953935 6.56424717 3.4375 9.0625 C3.4375 8.4025 3.4375 7.7425 3.4375 7.0625 C2.4475 7.0625 1.4575 7.0625 0.4375 7.0625 C0.4375 5.4125 0.4375 3.7625 0.4375 2.0625 C-0.8825 1.7325 -2.2025 1.4025 -3.5625 1.0625 C-2.5625 0.0625 -2.5625 0.0625 0 0 Z " fill="#B4A262" transform="translate(97.5625,90.9375)"/>
<path d="M0 0 C0.33 0 0.66 0 1 0 C1.33 1.98 1.66 3.96 2 6 C-1.44450737 8.29633824 -3.93812283 8.54016485 -8 9 C-7.67 6.69 -7.34 4.38 -7 2 C-6.21625 2.04125 -5.4325 2.0825 -4.625 2.125 C-1.83883881 2.28728734 -1.83883881 2.28728734 0 0 Z " fill="#E2AF42" transform="translate(85,74)"/>
<path d="M0 0 C1.32 0 2.64 0 4 0 C4 5.28 4 10.56 4 16 C2.68 15.67 1.36 15.34 0 15 C0 10.05 0 5.1 0 0 Z " fill="#E8BE55" transform="translate(35,92)"/>
<path d="M0 0 C0.33 0.99 0.66 1.98 1 3 C1.99 3.33 2.98 3.66 4 4 C-2.6 4 -9.2 4 -16 4 C-15.67 3.34 -15.34 2.68 -15 2 C-12.45975996 1.52425562 -9.99948536 1.15992453 -7.4375 0.875 C-6.72658203 0.78863281 -6.01566406 0.70226562 -5.28320312 0.61328125 C-3.52310688 0.40065217 -1.76165836 0.19927303 0 0 Z " fill="#A38E5F" transform="translate(56,81)"/>
<path d="M0 0 C5.28 0 10.56 0 16 0 C16.33 0.99 16.66 1.98 17 3 C14.54101345 3.08076963 12.08466258 3.14037143 9.625 3.1875 C8.57699219 3.22520508 8.57699219 3.22520508 7.5078125 3.26367188 C5.4765625 3.29296875 5.4765625 3.29296875 2 3 C1.34 2.01 0.68 1.02 0 0 Z " fill="#EBC051" transform="translate(81,84)"/>
<path d="M0 0 C2.31 0 4.62 0 7 0 C7.33 1.98 7.66 3.96 8 6 C5.125 6.1875 5.125 6.1875 2 6 C0 3 0 3 0 0 Z " fill="#A8A581" transform="translate(53,109)"/>
<path d="M0 0 C2.97 0 5.94 0 9 0 C9 0.99 9 1.98 9 3 C7.68 2.67 6.36 2.34 5 2 C5 2.66 5 3.32 5 4 C6.32 4.33 7.64 4.66 9 5 C8.67 5.99 8.34 6.98 8 8 C6.68 8 5.36 8 4 8 C4 6.02 4 4.04 4 2 C2.68 2 1.36 2 0 2 C0 1.34 0 0.68 0 0 Z " fill="#C4B571" transform="translate(83,95)"/>
<path d="M0 0 C1.32 0 2.64 0 4 0 C3.67 4.29 3.34 8.58 3 13 C2.01 12.67 1.02 12.34 0 12 C-0.33 11.01 -0.66 10.02 -1 9 C-0.34 8.67 0.32 8.34 1 8 C0.34 7.01 -0.32 6.02 -1 5 C-0.625 2.3125 -0.625 2.3125 0 0 Z " fill="#BCA76A" transform="translate(64,95)"/>
<path d="M0 0 C4.29 0 8.58 0 13 0 C12.67 0.99 12.34 1.98 12 3 C8.04 3 4.08 3 0 3 C0 2.01 0 1.02 0 0 Z " fill="#D6AB55" transform="translate(57,81)"/>
<path d="M0 0 C3.96 0 7.92 0 12 0 C11.67 0.99 11.34 1.98 11 3 C7.37 3 3.74 3 0 3 C0 2.01 0 1.02 0 0 Z " fill="#D9AF58" transform="translate(111,81)"/>
<path d="M0 0 C1.32 0 2.64 0 4 0 C4 2.31 4 4.62 4 7 C2.02 7.33 0.04 7.66 -2 8 C-1.67 7.236875 -1.34 6.47375 -1 5.6875 C0.17436686 3.00930865 0.17436686 3.00930865 0 0 Z " fill="#C0AA5E" transform="translate(140,100)"/>
<path d="M0 0 C1.32 0 2.64 0 4 0 C4 1.98 4 3.96 4 6 C2.02 6 0.04 6 -2 6 C-2.33 5.34 -2.66 4.68 -3 4 C-2.34 3.67 -1.68 3.34 -1 3 C-0.67 2.01 -0.34 1.02 0 0 Z " fill="#A39A7A" transform="translate(123,109)"/>
<path d="M0 0 C1.4540625 0.0309375 1.4540625 0.0309375 2.9375 0.0625 C2.9375 2.0425 2.9375 4.0225 2.9375 6.0625 C1.2875 6.0625 -0.3625 6.0625 -2.0625 6.0625 C-2.0625 4.7425 -2.0625 3.4225 -2.0625 2.0625 C-2.7225 1.7325 -3.3825 1.4025 -4.0625 1.0625 C-3.0625 0.0625 -3.0625 0.0625 0 0 Z " fill="#A29A77" transform="translate(102.0625,108.9375)"/>
<path d="M0 0 C0 1.32 0 2.64 0 4 C-0.66 4 -1.32 4 -2 4 C-2 3.34 -2 2.68 -2 2 C-2.928125 2.20625 -3.85625 2.4125 -4.8125 2.625 C-8 3 -8 3 -11 1 C-6.92630576 -1.03684712 -4.41062136 -1.0257259 0 0 Z " fill="#A99761" transform="translate(81,95)"/>
<path d="M0 0 C5.08938811 1.59043379 8.87456643 4.7446951 13 8 C12.01 8.495 12.01 8.495 11 9 C10.113125 8.360625 9.22625 7.72125 8.3125 7.0625 C5.30788572 5.19170243 3.4489629 4.40576034 0 4 C0 2.68 0 1.36 0 0 Z " fill="#BE9B51" transform="translate(64,64)"/>
<path d="M0 0 C0.99 0 1.98 0 3 0 C3.33 1.32 3.66 2.64 4 4 C5.65 4.33 7.3 4.66 9 5 C9 5.33 9 5.66 9 6 C7.5199159 5.88637738 6.04089926 5.75877092 4.5625 5.625 C3.73878906 5.55539063 2.91507812 5.48578125 2.06640625 5.4140625 C1.38449219 5.27742188 0.70257813 5.14078125 0 5 C-0.33 4.34 -0.66 3.68 -1 3 C-0.67 2.01 -0.34 1.02 0 0 Z " fill="#B49F7C" transform="translate(111,109)"/>
<path d="M0 0 C1.0326802 2.78823655 1.04509293 3.8677274 0.0625 6.75 C-0.288125 7.4925 -0.63875 8.235 -1 9 C-1.66 8.67 -2.32 8.34 -3 8 C-3 5.69 -3 3.38 -3 1 C-2.01 0.67 -1.02 0.34 0 0 Z " fill="#DFBC59" transform="translate(72,96)"/>
<path d="M0 0 C2 2 2 2 3 5 C1.68 5.99 0.36 6.98 -1 8 C-1.66 7.67 -2.32 7.34 -3 7 C-2.67 6.34 -2.34 5.68 -2 5 C-2.66 4.67 -3.32 4.34 -4 4 C-3.34 3.34 -2.68 2.68 -2 2 C-1.34 2.33 -0.68 2.66 0 3 C0 2.01 0 1.02 0 0 Z " fill="#C08C3B" transform="translate(72,76)"/>
<path d="M0 0 C2.475 0.495 2.475 0.495 5 1 C5.33 1.99 5.66 2.98 6 4 C5.34 4 4.68 4 4 4 C3.67 4.66 3.34 5.32 3 6 C2.01 6 1.02 6 0 6 C0 4.02 0 2.04 0 0 Z " fill="#A19970" transform="translate(75,109)"/>
<path d="M0 0 C1.32 0 2.64 0 4 0 C4 1.98 4 3.96 4 6 C3.01 6 2.02 6 1 6 C0 5 0 5 -0.0625 2.4375 C-0.041875 1.633125 -0.02125 0.82875 0 0 Z " fill="#C9A25B" transform="translate(78,100)"/>
<path d="M0 0 C2.0625 0.4375 2.0625 0.4375 4 1 C4 2.65 4 4.3 4 6 C2.35 6 0.7 6 -1 6 C-1.042721 4.33388095 -1.04063832 2.66617115 -1 1 C-0.67 0.67 -0.34 0.34 0 0 Z " fill="#B5A57B" transform="translate(112,91)"/>
<path d="M0 0 C0.66 0 1.32 0 2 0 C2 4.62 2 9.24 2 14 C2.66 14 3.32 14 4 14 C4 14.66 4 15.32 4 16 C2.68 15.67 1.36 15.34 0 15 C0 10.05 0 5.1 0 0 Z " fill="#D0B953" transform="translate(35,92)"/>
<path d="M0 0 C0.99 0.33 1.98 0.66 3 1 C2.25 3.4375 2.25 3.4375 1 6 C-1.125 6.8125 -1.125 6.8125 -3 7 C-2.01 4.69 -1.02 2.38 0 0 Z " fill="#DFBA5F" transform="translate(89,58)"/>
<path d="M0 0 C2.71843438 3.62457917 3.41789544 4.80884715 4 9 C2.35 9.33 0.7 9.66 -1 10 C-0.67 6.7 -0.34 3.4 0 0 Z " fill="#AF9B48" transform="translate(50,98)"/>
<path d="M0 0 C6.625 -0.25 6.625 -0.25 10 2 C9.0409375 2.1546875 9.0409375 2.1546875 8.0625 2.3125 C7.381875 2.539375 6.70125 2.76625 6 3 C5.67 3.99 5.34 4.98 5 6 C5.66 6.33 6.32 6.66 7 7 C6.01 7 5.02 7 4 7 C4 5.02 4 3.04 4 1 C2.68 0.67 1.36 0.34 0 0 Z " fill="#B1A066" transform="translate(35,91)"/>
<path d="M0 0 C2.64 0 5.28 0 8 0 C8 0.66 8 1.32 8 2 C5.69 2.33 3.38 2.66 1 3 C0.67 2.01 0.34 1.02 0 0 Z " fill="#7F7E6C" transform="translate(128,111)"/>
<path d="M0 0 C2.31 0 4.62 0 7 0 C7 0.99 7 1.98 7 3 C4.69 2.67 2.38 2.34 0 2 C0 1.34 0 0.68 0 0 Z " fill="#8F9880" transform="translate(44,111)"/>
<path d="M0 0 C0.66 1.32 1.32 2.64 2 4 C1.34 4.66 0.68 5.32 0 6 C-1.32 6 -2.64 6 -4 6 C-3.67 4.68 -3.34 3.36 -3 2 C-2.34 2 -1.68 2 -1 2 C-0.67 1.34 -0.34 0.68 0 0 Z " fill="#B29E65" transform="translate(43,102)"/>
<path d="M0 0 C0.66 0.66 1.32 1.32 2 2 C1.9765625 4.1640625 1.9765625 4.1640625 1.625 6.625 C1.51414063 7.44226563 1.40328125 8.25953125 1.2890625 9.1015625 C1.19367187 9.72804688 1.09828125 10.35453125 1 11 C0.67 11 0.34 11 0 11 C-0.19406478 9.35492782 -0.38007935 7.70890406 -0.5625 6.0625 C-0.66691406 5.14597656 -0.77132812 4.22945313 -0.87890625 3.28515625 C-0.91886719 2.53105469 -0.95882812 1.77695313 -1 1 C-0.67 0.67 -0.34 0.34 0 0 Z " fill="#D5B75C" transform="translate(51,95)"/>
<path d="M0 0 C1.32 0 2.64 0 4 0 C4 0.66 4 1.32 4 2 C3.34 2 2.68 2 2 2 C1.67 4.64 1.34 7.28 1 10 C0.67 10 0.34 10 0 10 C0 6.7 0 3.4 0 0 Z " fill="#605333" transform="translate(55,95)"/>
</svg>
